<svg xmlns="http://www.w3.org/2000/svg" width="33.531" height="33.531">
    <g data-name="Group 38">
        <g data-name="Group 36">
            <g data-name="Group 35" transform="translate(-2704.267 -2822.022)">
                <circle data-name="Ellipse 7" cx="16.765" cy="16.765" r="16.765" transform="translate(2704.267 2822.022)" style="fill:#e16025"/>
            </g>
        </g>
        <g data-name="Group 37">
            <path data-name="Path 4" d="M2725.635 2844.5a5.809 5.809 0 0 1-3.448 1.444v2.233h-1.987V2846a10.854 10.854 0 0 1-2.811-.518 7.085 7.085 0 0 1-2.152-1.076l1.1-2.432a7.141 7.141 0 0 0 1.773.937 8.122 8.122 0 0 0 2.093.479v-3.329a15.048 15.048 0 0 1-2.392-.756 4.225 4.225 0 0 1-1.634-1.226 3.291 3.291 0 0 1-.658-2.143 3.843 3.843 0 0 1 1.206-2.839 5.732 5.732 0 0 1 3.478-1.445v-2.213h1.992v2.173a8.758 8.758 0 0 1 4.046 1.216l-1 2.451a7.939 7.939 0 0 0-3.05-1.037v3.389a14.429 14.429 0 0 1 2.362.726 4.151 4.151 0 0 1 1.624 1.216 3.254 3.254 0 0 1 .658 2.123 3.773 3.773 0 0 1-1.2 2.804zm-6.537-7.9a3.116 3.116 0 0 0 1.1.538v-2.829a2.152 2.152 0 0 0-1.116.567 1.294 1.294 0 0 0-.359.907 1.021 1.021 0 0 0 .377.817zm4.165 6.2a1.173 1.173 0 0 0 .36-.858 1.029 1.029 0 0 0-.37-.816 3.257 3.257 0 0 0-1.066-.559v2.751a2.146 2.146 0 0 0 1.076-.518z" style="fill:#fff" transform="translate(-2704.267 -2822.022)"/>
        </g>
    </g>
</svg>
