<svg xmlns="http://www.w3.org/2000/svg" viewBox="0 0 507.11 151.35"><g id="Layer_2" data-name="Layer 2"><g id="Layer_1-2" data-name="Layer 1"><path d="M401.74,82.47a2.73,2.73,0,0,1-.31.06H384.81c0-.17-.07-.31-.08-.45s0-.48,0-.73V50.58a13.27,13.27,0,0,0-.59-4.11,9.48,9.48,0,0,0-6.22-6.26,11.25,11.25,0,0,0-4.72-.48,11.84,11.84,0,0,0-7.31,3.55,13.9,13.9,0,0,0-3.8,6.89,17.24,17.24,0,0,0-.47,4q0,13.68,0,27.34c0,.29,0,.58,0,.91a4.66,4.66,0,0,1-.47.06c-.68,0-1.36,0-2.05,0H345.54a3.56,3.56,0,0,1-.87,0c0-.08-.08-.13-.08-.17q0-28.72,0-57.46c0-.09,0-.18,0-.28a1.5,1.5,0,0,1,.83-.1h16c.25.24.17.5.17.73,0,2.24,0,4.48,0,6.73,0,.23,0,.47,0,.71.28,0,.32-.19.42-.31a24.19,24.19,0,0,1,3.75-3.82,22.15,22.15,0,0,1,11.43-4.9,25,25,0,0,1,10,.6,18.76,18.76,0,0,1,12.67,11,21.17,21.17,0,0,1,1.71,7.08c.07,1,.12,2,.12,3q0,18.1,0,36.19A4.46,4.46,0,0,1,401.74,82.47Z"/><path d="M433.82,25.28V90.79a25.38,25.38,0,0,1-1.12,7.64,17.48,17.48,0,0,1-1.2,2.91,14.38,14.38,0,0,1-7.43,6.73,23.71,23.71,0,0,1-5.81,1.53,38.4,38.4,0,0,1-7.11.28c-1.36-.06-1.5-.21-2.85-.35-1-.09-.55-.24-1.51-.36a3.1,3.1,0,0,1-.39-.09,1.69,1.69,0,0,1-.07-.38V93.86a2.17,2.17,0,0,1,.49,0c1.11.11.86.25,2,.35a7.25,7.25,0,0,0,3.07-.24,7.64,7.64,0,0,0,1.55-.52,3.45,3.45,0,0,0,1.75-1.68,8.55,8.55,0,0,0,.76-2.34,19.63,19.63,0,0,0,.32-3.43V25.35c.18,0,.32-.08.47-.1s.31,0,.47,0h15.68Z"/><path d="M86.7,82.54c-.81.09-13.58.14-17,.06l-.42,0a.7.7,0,0,0-.09-.09.19.19,0,0,1,0-.07c0-.12,0-.24,0-.37q0-28.68,0-57.36a.74.74,0,0,1,.06-.18c.13,0,.28-.06.43-.07s.36,0,.55,0h15.6a3.82,3.82,0,0,1,1,0,2,2,0,0,1,.06.3C86.83,26,86.78,82,86.7,82.54Z"/><path d="M88.26,9.23c.07,4.91-4.21,8.58-8.54,9.08A11.77,11.77,0,0,1,73,17.38a8.88,8.88,0,0,1-5.3-6.91C66.87,4.36,71.86.65,76,.13a13.14,13.14,0,0,1,5.3.31,9.51,9.51,0,0,1,6.75,7.1C88.19,8.09,88.21,8.67,88.26,9.23Z"/><path d="M505,24.93c0-.14,0-.27-.06-.39-.7-.1-13.87-.15-16.2-.07a3.94,3.94,0,0,0-.4.05c0,.26,0,.49,0,.73,0,1.75,0,3.51,0,5.27,0,.15.07.33-.12.5-.11-.12-.23-.23-.33-.36a17.6,17.6,0,0,0-2-2.22,18.36,18.36,0,0,0-10.95-4.86,33.11,33.11,0,0,0-8,.12,26.87,26.87,0,0,0-10.85,4,26.47,26.47,0,0,0-8.94,9.49,31,31,0,0,0-3.87,12.7,37.4,37.4,0,0,0,.25,8.78A30.21,30.21,0,0,0,447.55,70a25.63,25.63,0,0,0,9.29,9.06,27.44,27.44,0,0,0,11.6,3.57,31.43,31.43,0,0,0,8.16-.31,18,18,0,0,0,6.23-2.26,18.36,18.36,0,0,0,4.88-4.19c.14-.18.3-.36.45-.54l.15.07v.71c0,1.66,0,3.32,0,5a.86.86,0,0,0,.13.66l.78,0h14.89a3.38,3.38,0,0,0,.45,0,2.87,2.87,0,0,0,.44-.09V25.5C505,25.31,505,25.12,505,24.93ZM488,52.71c0,.27,0,.53,0,.8A12.49,12.49,0,0,1,482.11,64a15.65,15.65,0,0,1-14,1.16,12.76,12.76,0,0,1-7.22-7.56,14,14,0,0,1-.79-6.53,14.38,14.38,0,0,1,1.07-4.18,12.84,12.84,0,0,1,10.13-7.8,16,16,0,0,1,7.15.36A13.26,13.26,0,0,1,487.72,49a9.78,9.78,0,0,1,.3,2.64C488,52,488,52.35,488,52.71Z"/><path d="M29.24,9.74q12.27,0,19.28,5.39t7,15A16.94,16.94,0,0,1,53,39.52a16.53,16.53,0,0,1-7.27,6,20.35,20.35,0,0,1,9.3,6.2,16.18,16.18,0,0,1,3.38,10.57,19.18,19.18,0,0,1-1.82,8.44,18.08,18.08,0,0,1-5.2,6.42,23.94,23.94,0,0,1-8.26,4.09,39.75,39.75,0,0,1-11,1.41H.14v-73Zm-.93,31a12.56,12.56,0,0,0,7.59-2.06,7.11,7.11,0,0,0,2.8-6.1,6.68,6.68,0,0,0-2.8-5.88,13.06,13.06,0,0,0-7.59-2H16.15v16Zm2.39,26.9q5.29,0,8.11-2.17a7.53,7.53,0,0,0,2.8-6.32q0-8.05-11.22-8.06H16.15V67.67Z"/><path d="M329.82,82.43c-.82.1-13.59.15-17.06.07l-.41,0c-.06-.06-.08-.07-.09-.09a.19.19,0,0,1,0-.07c0-.12,0-.24,0-.37q0-28.62,0-57.26a1.32,1.32,0,0,1,0-.18c.13,0,.28-.06.43-.07s.37,0,.55,0h15.6a3.82,3.82,0,0,1,.95,0,1.84,1.84,0,0,1,.07.3C329.94,25.94,329.89,81.87,329.82,82.43Z"/><path d="M331.37,9.23c.08,4.91-4.21,8.58-8.53,9.08a11.75,11.75,0,0,1-6.69-.93,8.9,8.9,0,0,1-5.31-6.91C310,4.36,315,.65,319.16.13a13.16,13.16,0,0,1,5.3.31,9.54,9.54,0,0,1,6.75,7.1C331.3,8.09,331.32,8.67,331.37,9.23Z"/><path d="M120.8,11V26.64h12.59V39.17H120.8v22q0,4.17,2,5.69a9.44,9.44,0,0,0,5.72,1.51c.7,0,1.45,0,2.25-.1s1.66-.18,2.57-.32v14.1a69.69,69.69,0,0,1-9,.62q-9.56,0-14.38-4t-4.82-13.52v-26H96.25V26.64h8.92V11Z"/><path d="M158.52,56.87a13.9,13.9,0,0,0,4.29,8.22,12.67,12.67,0,0,0,8.9,3.16,11.66,11.66,0,0,0,6.18-1.72,12.3,12.3,0,0,0,4.29-4.18H199a25.36,25.36,0,0,1-3.51,8.37,24.14,24.14,0,0,1-6.07,6.39,28.38,28.38,0,0,1-8.16,4.08,32.34,32.34,0,0,1-9.89,1.45,29.74,29.74,0,0,1-11.57-2.2,27.13,27.13,0,0,1-9.1-6.12,28.59,28.59,0,0,1-6-9.29,30.51,30.51,0,0,1-2.2-11.7,31.72,31.72,0,0,1,2.15-11.76,27.88,27.88,0,0,1,6-9.34,27.32,27.32,0,0,1,9-6.12,29.38,29.38,0,0,1,11.52-2.2A32.12,32.12,0,0,1,182,25.68a26.88,26.88,0,0,1,8.74,5.05,26.15,26.15,0,0,1,6.12,7.83,29,29,0,0,1,3,10c.14,1.65.23,3.08.27,4.3s0,2.54-.06,4Zm24.81-8.8a11.46,11.46,0,0,0-4-7,13.2,13.2,0,0,0-16-.05,13.46,13.46,0,0,0-4.29,7.09Z"/><path d="M434.81,9.23c.07,4.91-4.22,8.58-8.54,9.08a11.77,11.77,0,0,1-6.69-.93,8.88,8.88,0,0,1-5.3-6.91C413.41,4.36,418.4.65,422.59.13a13.14,13.14,0,0,1,5.3.31,9.51,9.51,0,0,1,6.75,7.1C434.74,8.09,434.75,8.67,434.81,9.23Z"/><polygon points="233.41 9.8 251.55 9.8 280.59 54.68 280.59 9.8 298.13 9.8 298.13 82.54 280.39 82.54 251.35 37.94 251.35 82.54 233.41 82.54 233.41 9.8"/><path d="M8.32,120.37a8.13,8.13,0,0,1,2.77.44,6.09,6.09,0,0,1,2.13,1.25A5.48,5.48,0,0,1,14.59,124a6.44,6.44,0,0,1,.48,2.55,5.55,5.55,0,0,1-.79,3.06A5,5,0,0,1,12,131.48,5.48,5.48,0,0,1,15,133.31,5.28,5.28,0,0,1,16,136.75a6.75,6.75,0,0,1-.48,2.59,5.63,5.63,0,0,1-1.37,2A6.23,6.23,0,0,1,12,142.56a8.34,8.34,0,0,1-2.77.44H0V120.37Zm-.44,10.1a4.76,4.76,0,0,0,3.21-1,3.48,3.48,0,0,0,1.18-2.76A3.21,3.21,0,0,0,11.09,124a5,5,0,0,0-3.21-1H2.65v7.4Zm.93,9.83a4.9,4.9,0,0,0,3.21-1,3.78,3.78,0,0,0,0-5.51,4.9,4.9,0,0,0-3.21-1H2.65v7.47Z"/><path d="M22.87,134.73a7.19,7.19,0,0,0,.61,2.2,6.06,6.06,0,0,0,1.23,1.79,5.72,5.72,0,0,0,1.81,1.2,5.93,5.93,0,0,0,2.3.44,5.37,5.37,0,0,0,2.89-.73,4.84,4.84,0,0,0,1.77-1.83h3.19a7.18,7.18,0,0,1-2.81,3.75,8.56,8.56,0,0,1-5,1.44,8.13,8.13,0,0,1-3.4-.72,9,9,0,0,1-2.78-1.94,9.31,9.31,0,0,1-1.87-2.87,8.93,8.93,0,0,1-.69-3.51,9.52,9.52,0,0,1,.66-3.57,9.06,9.06,0,0,1,1.8-2.88,8.44,8.44,0,0,1,2.71-1.93,8.27,8.27,0,0,1,3.37-.7,9.41,9.41,0,0,1,3.28.55A8.18,8.18,0,0,1,34.55,127a8,8,0,0,1,1.84,2.37,8.13,8.13,0,0,1,.84,3.09,10.72,10.72,0,0,1,.05,1.21c0,.35,0,.72-.05,1.11Zm11.37-2.32a5.69,5.69,0,0,0-.55-2,4.88,4.88,0,0,0-1.18-1.55,5.23,5.23,0,0,0-1.72-1,6.54,6.54,0,0,0-2.17-.34,5.65,5.65,0,0,0-2.1.37,5.34,5.34,0,0,0-1.68,1,6.13,6.13,0,0,0-1.2,1.56,6.85,6.85,0,0,0-.67,1.94Z"/><path d="M43.38,130A4.63,4.63,0,0,1,45,126.29a6.79,6.79,0,0,1,4.49-1.38A6.85,6.85,0,0,1,54,126.27,4.87,4.87,0,0,1,55.74,130H53a2.42,2.42,0,0,0-1-1.86,3.82,3.82,0,0,0-2.38-.7c-2.38,0-3.58.82-3.58,2.45a2,2,0,0,0,.44,1.36,3.07,3.07,0,0,0,1.13.84,8.94,8.94,0,0,0,1.61.53l1.84.42c.62.15,1.23.33,1.84.53a5.7,5.7,0,0,1,1.61.83,3.91,3.91,0,0,1,1.13,1.35,4.28,4.28,0,0,1,.44,2,4.6,4.6,0,0,1-1.68,3.78A7.23,7.23,0,0,1,49.77,143a9.64,9.64,0,0,1-2.78-.37,6.82,6.82,0,0,1-2.13-1A4.58,4.58,0,0,1,43,137.81h2.74q.45,2.59,4.13,2.59c2.34,0,3.51-.77,3.51-2.32a1.87,1.87,0,0,0-.75-1.65,6,6,0,0,0-1.85-.83c-.74-.21-1.54-.39-2.42-.55a9.3,9.3,0,0,1-2.41-.76,5,5,0,0,1-1.85-1.52A4.45,4.45,0,0,1,43.38,130Z"/><path d="M66.29,120.75v5.17H71v2.46h-4.7v9.42a2.91,2.91,0,0,0,.65,2.23,2.62,2.62,0,0,0,1.75.55,11.78,11.78,0,0,0,2.3-.26v2.46l-1.42.18a12.43,12.43,0,0,1-1.32.08,6.8,6.8,0,0,1-1.79-.23A3.28,3.28,0,0,1,65,142a3.87,3.87,0,0,1-.92-1.57,8.15,8.15,0,0,1-.32-2.51v-9.55H60.68v-2.46H63.8v-5.17Z"/><path d="M152.1,134.73a7.19,7.19,0,0,0,.61,2.2,6.19,6.19,0,0,0,1.23,1.79,5.84,5.84,0,0,0,1.81,1.2,6,6,0,0,0,2.3.44,5.37,5.37,0,0,0,2.89-.73,4.84,4.84,0,0,0,1.77-1.83h3.19a7.13,7.13,0,0,1-2.81,3.75,8.56,8.56,0,0,1-5,1.44,8.17,8.17,0,0,1-3.4-.72,9.09,9.09,0,0,1-2.78-1.94,9.49,9.49,0,0,1-1.87-2.87,8.93,8.93,0,0,1-.69-3.51,9.52,9.52,0,0,1,.66-3.57,9.08,9.08,0,0,1,1.81-2.88,8.33,8.33,0,0,1,2.71-1.93,8.22,8.22,0,0,1,3.36-.7,9.47,9.47,0,0,1,3.29.55,8.13,8.13,0,0,1,2.64,1.53,7.8,7.8,0,0,1,1.84,2.37,8.13,8.13,0,0,1,.84,3.09,10.72,10.72,0,0,1,0,1.21c0,.35,0,.72,0,1.11Zm11.37-2.32a5.9,5.9,0,0,0-.54-2,5,5,0,0,0-1.18-1.55,5.28,5.28,0,0,0-1.73-1,6.54,6.54,0,0,0-2.17-.34,5.72,5.72,0,0,0-2.1.37,5.29,5.29,0,0,0-1.67,1,5.71,5.71,0,0,0-1.2,1.56,6.57,6.57,0,0,0-.68,1.94Z"/><path d="M199.15,134.73a7.18,7.18,0,0,0,.6,2.2,6,6,0,0,0,1.24,1.79,5.67,5.67,0,0,0,1.8,1.2,6,6,0,0,0,2.3.44,5.37,5.37,0,0,0,2.89-.73,4.94,4.94,0,0,0,1.78-1.83h3.18a7.13,7.13,0,0,1-2.81,3.75,8.54,8.54,0,0,1-5,1.44,8.17,8.17,0,0,1-3.4-.72,9,9,0,0,1-2.77-1.94,9.33,9.33,0,0,1-1.88-2.87,8.93,8.93,0,0,1-.69-3.51,9.52,9.52,0,0,1,.66-3.57,9.08,9.08,0,0,1,1.81-2.88,8.33,8.33,0,0,1,2.71-1.93,8.22,8.22,0,0,1,3.36-.7,9.47,9.47,0,0,1,3.29.55,8,8,0,0,1,2.64,1.53,7.8,7.8,0,0,1,1.84,2.37,8.13,8.13,0,0,1,.84,3.09,10.72,10.72,0,0,1,.05,1.21c0,.35,0,.72-.05,1.11Zm11.36-2.32a5.48,5.48,0,0,0-.54-2,5,5,0,0,0-1.18-1.55,5.28,5.28,0,0,0-1.73-1,6.5,6.5,0,0,0-2.17-.34,5.72,5.72,0,0,0-2.1.37,5.41,5.41,0,0,0-1.67,1,6.13,6.13,0,0,0-1.2,1.56,6.87,6.87,0,0,0-.68,1.94Z"/><path d="M268,135a7.27,7.27,0,0,0,.61,2.2,6.19,6.19,0,0,0,1.23,1.79,5.53,5.53,0,0,0,1.81,1.19,5.75,5.75,0,0,0,2.3.45,5.37,5.37,0,0,0,2.89-.74,4.81,4.81,0,0,0,1.77-1.82h3.19A7.26,7.26,0,0,1,279,141.8a8.56,8.56,0,0,1-5,1.43,8.29,8.29,0,0,1-3.4-.71,8.83,8.83,0,0,1-2.78-2,9.26,9.26,0,0,1-1.87-2.86,9,9,0,0,1-.69-3.52,9.51,9.51,0,0,1,.66-3.56,9,9,0,0,1,1.8-2.88,8.29,8.29,0,0,1,2.71-1.93,8.11,8.11,0,0,1,3.37-.7,9.65,9.65,0,0,1,3.28.54,8.39,8.39,0,0,1,2.65,1.54,8,8,0,0,1,1.84,2.37,8.13,8.13,0,0,1,.84,3.09,10.63,10.63,0,0,1,.05,1.21c0,.35,0,.72-.05,1.11Zm11.37-2.32a5.69,5.69,0,0,0-.55-2,5,5,0,0,0-2.9-2.54,6.54,6.54,0,0,0-2.17-.34,5.65,5.65,0,0,0-2.1.37,5.34,5.34,0,0,0-1.68,1,5.91,5.91,0,0,0-1.2,1.55,6.92,6.92,0,0,0-.67,1.95Z"/><path d="M353.29,135a7.27,7.27,0,0,0,.61,2.2,5.82,5.82,0,0,0,1.23,1.79,5.49,5.49,0,0,0,1.8,1.19,5.82,5.82,0,0,0,2.3.45,5.35,5.35,0,0,0,2.89-.74,4.92,4.92,0,0,0,1.78-1.82h3.19a7.31,7.31,0,0,1-2.81,3.75,8.57,8.57,0,0,1-5,1.43,8.35,8.35,0,0,1-3.4-.71,8.91,8.91,0,0,1-2.77-2,9.26,9.26,0,0,1-1.87-2.86,9,9,0,0,1-.69-3.52,9.71,9.71,0,0,1,.65-3.56,9,9,0,0,1,1.81-2.88,8.29,8.29,0,0,1,2.71-1.93,8.07,8.07,0,0,1,3.37-.7,9.69,9.69,0,0,1,3.28.54A8.39,8.39,0,0,1,365,127.2a8.12,8.12,0,0,1,1.84,2.37,7.94,7.94,0,0,1,.83,3.09,8.73,8.73,0,0,1,.05,1.21c0,.35,0,.72-.05,1.11Zm11.36-2.32a5.48,5.48,0,0,0-.54-2,5,5,0,0,0-2.9-2.54,6.54,6.54,0,0,0-2.17-.34,5.74,5.74,0,0,0-2.11.37,5.41,5.41,0,0,0-1.67,1,5.91,5.91,0,0,0-1.2,1.55,6.62,6.62,0,0,0-.67,1.95Z"/><path d="M492.7,135.28a7.4,7.4,0,0,0,.61,2.2,6.11,6.11,0,0,0,1.23,1.8,5.78,5.78,0,0,0,4.11,1.63,5.37,5.37,0,0,0,2.89-.73,4.94,4.94,0,0,0,1.78-1.83h3.18a7.19,7.19,0,0,1-2.81,3.76,8.63,8.63,0,0,1-5,1.43,8.17,8.17,0,0,1-3.4-.72,8.61,8.61,0,0,1-2.77-1.94A9.33,9.33,0,0,1,490.6,138a8.93,8.93,0,0,1-.69-3.51,9.6,9.6,0,0,1,.66-3.57,9.08,9.08,0,0,1,1.81-2.88,8.33,8.33,0,0,1,2.71-1.93,8.21,8.21,0,0,1,3.36-.69,9.7,9.7,0,0,1,3.29.54,8.05,8.05,0,0,1,2.64,1.54,7.8,7.8,0,0,1,1.84,2.37,8.13,8.13,0,0,1,.84,3.08,10.8,10.8,0,0,1,.05,1.22c0,.35,0,.72-.05,1.1ZM504.07,133a6,6,0,0,0-.54-2,5,5,0,0,0-1.18-1.55,5.28,5.28,0,0,0-1.73-1,6.81,6.81,0,0,0-2.17-.34,5.72,5.72,0,0,0-2.1.38,5.23,5.23,0,0,0-1.67,1,5.51,5.51,0,0,0-1.2,1.55,6.87,6.87,0,0,0-.68,1.94Z"/><path d="M88.72,120.33h12.84V123H91.09v7.42H100V133H91.09v7.32h10.47V143H88.72Z"/><path d="M118.49,143.05,114,136.51l-4.5,6.54h-3.09l6-8.78-6.07-8.85h3.09L114,132l4.53-6.61h3.12l-6.1,8.85,6,8.78Z"/><path d="M127.38,151.35V125.29h2.69v3a6.85,6.85,0,0,1,2.47-2.43,7.69,7.69,0,0,1,3.85-.88,7.79,7.79,0,0,1,3.43.76,8.32,8.32,0,0,1,2.72,2,9.74,9.74,0,0,1,1.8,3,10.54,10.54,0,0,1,.66,3.76,10.15,10.15,0,0,1-.66,3.66,9.81,9.81,0,0,1-1.8,3,8.46,8.46,0,0,1-2.72,2,7.93,7.93,0,0,1-3.43.76,7.59,7.59,0,0,1-3.85-.89,6.82,6.82,0,0,1-2.47-2.39v10.61Zm2.69-18v2.48a7.22,7.22,0,0,0,.65,2.1A6,6,0,0,0,132,139.6a6.19,6.19,0,0,0,1.8,1.14,6.11,6.11,0,0,0,4.83-.12,5.71,5.71,0,0,0,1.91-1.47,6.7,6.7,0,0,0,1.2-2.12,7.59,7.59,0,0,0,.42-2.5,7.75,7.75,0,0,0-.42-2.55,6.69,6.69,0,0,0-1.2-2.16,5.64,5.64,0,0,0-1.91-1.49,5.83,5.83,0,0,0-2.56-.56,6.1,6.1,0,0,0-2.29.43,5.75,5.75,0,0,0-1.81,1.19,6,6,0,0,0-1.25,1.76A7.71,7.71,0,0,0,130.07,133.31Z"/><path d="M172.75,125.42h2.65v3.89a7.09,7.09,0,0,1,6.58-4.24v3a6.45,6.45,0,0,0-2.26.43,6.91,6.91,0,0,0-2.14,1.26,6.47,6.47,0,0,0-1.57,2.05,6.22,6.22,0,0,0-.61,2.84v8.4h-2.65Z"/><path d="M186.5,120.17a2,2,0,0,1,.53-1.42,1.77,1.77,0,0,1,2.62,0,2.18,2.18,0,0,1,0,2.85,1.77,1.77,0,0,1-2.62,0A2,2,0,0,1,186.5,120.17Zm.59,5.42h2.5V143h-2.5Z"/><path d="M446.54,120.39a2.07,2.07,0,0,1,.53-1.43,1.77,1.77,0,0,1,2.62,0,2.07,2.07,0,0,1,.53,1.43,2,2,0,0,1-.53,1.43,1.77,1.77,0,0,1-2.62,0A2,2,0,0,1,446.54,120.39Zm.59,5.41h2.5v17.43h-2.5Z"/><path d="M220.49,125.59h2.86v3.34a7.7,7.7,0,0,1,2.86-2.69,8.2,8.2,0,0,1,4-1,7.44,7.44,0,0,1,2.77.49,6.11,6.11,0,0,1,2,1.35,5.51,5.51,0,0,1,1.27,2,7.28,7.28,0,0,1,.43,2.54V143h-2.86V132.19a4.07,4.07,0,0,0-1.28-3.25,5,5,0,0,0-3.33-1.1,4.74,4.74,0,0,0-2.3.56,6.22,6.22,0,0,0-1.84,1.46,7.21,7.21,0,0,0-1.25,2,6.93,6.93,0,0,0-.54,2.23V143h-2.86Z"/><path d="M242.67,134.34a9.15,9.15,0,0,1,.69-3.56,9.25,9.25,0,0,1,1.87-2.87A8.62,8.62,0,0,1,248,126a8.43,8.43,0,0,1,3.39-.7,8.77,8.77,0,0,1,2.82.46,8.35,8.35,0,0,1,2.43,1.3,7.93,7.93,0,0,1,2.92,4.47h-3a5.38,5.38,0,0,0-1.9-2.53,5.29,5.29,0,0,0-3.25-1,5.64,5.64,0,0,0-4.31,1.94,6.14,6.14,0,0,0-1.18,2.05,6.9,6.9,0,0,0-.42,2.38,6.75,6.75,0,0,0,.42,2.36,6.05,6.05,0,0,0,1.18,2,5.64,5.64,0,0,0,4.31,1.94,5.34,5.34,0,0,0,3.25-1,5.21,5.21,0,0,0,1.9-2.52h3a7.92,7.92,0,0,1-1.08,2.51,7.76,7.76,0,0,1-1.84,2,8.71,8.71,0,0,1-5.25,1.74,8.12,8.12,0,0,1-3.39-.72,8.65,8.65,0,0,1-2.78-1.94,9.39,9.39,0,0,1-1.87-2.85A8.93,8.93,0,0,1,242.67,134.34Z"/><path d="M313.67,120.33h12.84V123H316.05v7.42H325V133h-8.9v7.32h10.46V143H313.67Z"/><path d="M373.88,125.38h2.64v3.89a7.11,7.11,0,0,1,6.59-4.23v3a6.56,6.56,0,0,0-2.27.44,6.75,6.75,0,0,0-2.13,1.25,6.44,6.44,0,0,0-1.57,2.05,6.25,6.25,0,0,0-.62,2.84V143h-2.64Z"/><path d="M338.25,143.05l-7-17.63h3l5.45,14.4,5.52-14.4h3.05l-7,17.63Z"/><path d="M431.61,123h-8v-2.73H442.4V123h-8v20.16h-2.82Z"/><path d="M391.75,151.28l3.13-7.78-7.05-18.23h3.23l5.38,14.28,5.7-14.28h3.23l-10.53,26Z"/><path d="M456.13,125.42h3v3.13a7.75,7.75,0,0,1,2.7-2.55,7.52,7.52,0,0,1,3.76-.93,6.13,6.13,0,0,1,3.76,1.12,5.88,5.88,0,0,1,2.1,3,8,8,0,0,1,2.76-3,7.43,7.43,0,0,1,4-1.1,6.6,6.6,0,0,1,2.63.5,5.7,5.7,0,0,1,2,1.36,5.92,5.92,0,0,1,1.21,2,7.91,7.91,0,0,1,.41,2.57v11.5h-3v-11a4.32,4.32,0,0,0-1.19-3.29,4.27,4.27,0,0,0-3.05-1.12,4,4,0,0,0-2.09.57,5.79,5.79,0,0,0-1.68,1.48,8,8,0,0,0-1.16,2,7,7,0,0,0-.47,2.26v9h-3v-11a4.32,4.32,0,0,0-1.19-3.29,4.27,4.27,0,0,0-3.05-1.12,4,4,0,0,0-2.09.57,6,6,0,0,0-1.69,1.48,8.26,8.26,0,0,0-1.15,2,6.72,6.72,0,0,0-.47,2.26v9h-3Z"/><path d="M289.41,140.35h3.17l-1.72,7.1h-2.25Z"/></g></g></svg>