<svg xmlns="http://www.w3.org/2000/svg" width="103.445" height="103.445">
    <g data-name="Group 1155">
        <g data-name="Group 1153" transform="translate(-109.928 -71.774)">
            <circle data-name="Ellipse 211" cx="51.722" cy="51.722" r="51.722" transform="translate(109.928 71.774)" style="fill:#e25f25"/>
        </g>
        <g data-name="Group 1154">
            <path data-name="Path 846" d="M193.45 112.281a10.324 10.324 0 0 0-1.779.195s.244-3.143 3.923-5.579a4.129 4.129 0 0 0-1.681-1.121 11.613 11.613 0 0 0-1.779 1.974 3.62 3.62 0 0 1 1.048-2.607s.122-.731-2.924-.634a4.66 4.66 0 0 0-1.145 1.9.313.313 0 0 1-.341.243s-.414.057-.244-.243c0 0 .674-1.032 1.1-1.568 0 0-.212-.146-1.673-.057a14.915 14.915 0 0 0-1.584 2.957 10.48 10.48 0 0 1-3.695-1.446s-1.673-1.17-2.81-.763a3.144 3.144 0 0 0-.39.276 4.465 4.465 0 0 1-1.4.113 12.083 12.083 0 0 0 .211-4.109c-.341-1.689-6.075-6.887-11.7-8.576 0 0-4.19-1.722-11.727-1.625 0 0-.845-.162-.91 1.04a3.52 3.52 0 0 0 1.755 3.216s.065.162-1.722 3.379a2.41 2.41 0 0 1-1.722-.683s-.455-.487-.723-.852a3.579 3.579 0 0 0-1.011-1.17s-7.1-6.14-11.22-8.259c0 0-.633-.89-2.558 0a13.772 13.772 0 0 0-4.02 3.07s-.67.828.5 1.705a14.69 14.69 0 0 0 4.178 2.534 1.215 1.215 0 0 0 1.462-.292s9.575 4.385 8.771 24.7a21.945 21.945 0 0 1-1.608 5.263 45.343 45.343 0 0 0-1.754 15.934s.438 11.11 11.183 14.691l-.8 4.678 6.724-10.086s.317-.9-1.1-1.243a14.825 14.825 0 0 1-3.07-7.066 48.377 48.377 0 0 1 9.307-8.576s3.85 5.36 4.386 8.869c0 0 1.121 1.608 4.337 1.851 0 0 .877.439 1.949-.828 0 0 3.313-3.265 3.362-7.407 0 0 .1.1 0-2.144a4.521 4.521 0 0 0-2.777.975s.682-1.218.243-9.4c0 0 .146-2.875-1.51-3.167 0 0-.975-.439-3.8.292 0 0 .7-.65.763-3.151a.859.859 0 0 0-.227-.715s-.358-.065.812-1.1c0 0 4.959-4.516 6.54-4.353 0 0 6.609.723 7.559 1.795a21.911 21.911 0 0 1 5.677.219 6.755 6.755 0 0 0 .438-2.753s.026-.344-.824-.296zm-28.872 2.461a2.376 2.376 0 0 1-1.754.877s-1.364.211-2.566-2.777a28.233 28.233 0 0 0 4.32 1.38s.374.098 0 .52zm6.578 1.17a2.793 2.793 0 0 1-1.591-.666c-.325-.228 0-.39 0-.39a26.322 26.322 0 0 0 3.606-.958 2.544 2.544 0 0 1-2.015 2.014z" style="fill:#fff" transform="translate(-109.928 -71.774)"/>
        </g>
    </g>
</svg>
