<svg xmlns="http://www.w3.org/2000/svg" width="17.673" height="21.324">
    <defs>
        <style>
            .cls-1{fill:none;stroke:#fff;stroke-miterlimit:10;stroke-width:1.173px}
        </style>
    </defs>
    <g id="Group_654" data-name="Group 654" transform="translate(-42.807 -1743.167)">
        <g id="Group_653" data-name="Group 653">
            <path id="Path_326" data-name="Path 326" class="cls-1" d="M57.613 1757.323h-11.94v-7.6a5.97 5.97 0 0 1 5.97-5.971 5.97 5.97 0 0 1 5.97 5.971z"/>
            <path id="Path_327" data-name="Path 327" class="cls-1" d="M57.885 1761.339H45.4a2.008 2.008 0 0 1-2.008-2.008 2.008 2.008 0 0 1 2.008-2.008h12.485a2.008 2.008 0 0 1 2.008 2.008 2.008 2.008 0 0 1-2.008 2.008z"/>
            <path id="Path_328" data-name="Path 328" class="cls-1" d="M51.643 1763.9a1.385 1.385 0 0 1-1.384-1.385v-1.18h2.768v1.18a1.385 1.385 0 0 1-1.384 1.385z"/>
        </g>
        <path id="Path_329" data-name="Path 329" class="cls-1" d="M54.728 1749.323a3.085 3.085 0 1 1-3.085-3.085 3.085 3.085 0 0 1 3.085 3.085z"/>
    </g>
</svg>
