<svg xmlns="http://www.w3.org/2000/svg" width="42.042" height="42.042" viewBox="0 0 42.042 42.042">
  <defs>
    <style>
      .cls-1 {
        fill: #e16025;
      }

      .cls-2 {
        fill: #fff;
      }
    </style>
  </defs>
  <g id="Group_714" data-name="Group 714" transform="translate(-1653.962 -1518.203)">
    <g id="Group_712" data-name="Group 712">
      <circle id="Ellipse_142" data-name="Ellipse 142" class="cls-1" cx="21.021" cy="21.021" r="21.021" transform="translate(1653.962 1518.203)"/>
    </g>
    <g id="lFy6KJ.tif">
      <g id="Group_713" data-name="Group 713">
        <path id="Path_376" data-name="Path 376" class="cls-2" d="M1684.933,1530.908c-1.559-.005-3.118,0-4.677-.005h-.653c0-.328,0-.575,0-.822a2.766,2.766,0,0,0-2.878-2.87c-1.212-.008-2.424-.016-3.636,0a2.762,2.762,0,0,0-2.723,2.674c-.012.321,0,.642,0,1.019h-.805c-1.559,0-3.116-.007-4.675.005a.918.918,0,0,0-.988.907.928.928,0,0,0,.965.932c.266.014.533,0,.88,0v.829c0,4.311-.007,8.621,0,12.931a4.6,4.6,0,0,0,4.7,4.724c1.924.011,3.848,0,5.773,0,1.135,0,2.271.012,3.406-.006a4.581,4.581,0,0,0,4.594-4.591c.025-4.272.007-8.543.008-12.816v-1.071c.269,0,.477,0,.685,0,.729-.007,1.15-.341,1.159-.915S1685.651,1530.91,1684.933,1530.908Zm-12.713-.947a.885.885,0,0,1,.93-.9q1.813-.028,3.626,0a.907.907,0,0,1,.974.973c.012.265,0,.53,0,.847h-5.536C1672.216,1530.562,1672.2,1530.26,1672.22,1529.961Zm10.154,16.614a2.738,2.738,0,0,1-2.76,2.81q-4.65.025-9.3,0a2.68,2.68,0,0,1-2.7-2.559c-.035-4.658-.013-9.317-.013-14.043h14.736a3.675,3.675,0,0,1,.039.393Q1682.376,1539.874,1682.374,1546.575Z"/>
        <path id="Path_377" data-name="Path 377" class="cls-2" d="M1672.209,1541.135c0,1.152.005,2.3,0,3.456,0,.682-.352,1.093-.91,1.1s-.932-.41-.934-1.078q-.009-3.543,0-7.086a.932.932,0,1,1,1.845-.021C1672.216,1538.714,1672.209,1539.924,1672.209,1541.135Z"/>
        <path id="Path_378" data-name="Path 378" class="cls-2" d="M1675.907,1544.588c0,.667-.362,1.1-.909,1.1a.952.952,0,0,1-.939-1.076q-.008-3.544,0-7.089c0-.671.374-1.084.935-1.072s.9.421.908,1.1c.007,1.172,0,2.344,0,3.515S1675.91,1543.416,1675.907,1544.588Z"/>
        <path id="Path_379" data-name="Path 379" class="cls-2" d="M1679.6,1544.538c0,.727-.347,1.146-.92,1.152s-.926-.418-.928-1.139c0-1.153,0-2.305,0-3.458,0-1.171,0-2.344,0-3.515,0-.7.374-1.137.947-1.125.546.011.9.433.9,1.112Q1679.611,1541.051,1679.6,1544.538Z"/>
      </g>
    </g>
  </g>
</svg>
